# Aspose.3D Wavefront OBJ Exporter
# Copyright 2004-2020 Aspose Pty Ltd.
# File created: 10/3/2020 8:00:37 PM


#
# object obj_65383884
#

v 225 275 -445
v 225 225 -445
v 225 275 -50
v 225 225 -50
v -275 -225 -50
v -275 225 -50
v -225 -225 -50
v -225 225 -50
v 275 225 -50
v 275 -225 -50
v 225 -225 -50
v 225 -275 -50
v -225 -275 -50
v -225 275 -50
v -225 275 -445
v -275 275 -445
v -275 275 0
v 275 275 0
v 275 275 -445
v 225 -225 -445
v 225 -275 -445
v 275 -275 0
v -275 -275 0
v 275 225 -445
v 275 -225 -445
v 275 -275 -445
v -275 -225 -445
v -275 -275 -445
v -275 225 -445
v -225 -275 -445
v -225 -225 -445
v -225 225 -445
# 32 vertices

vn -1 0 0
vn 0 0 -1
vn 0 1 0
vn 0 0 1
vn 1 0 0
vn 0 -1 0
# 6 vertex normals

g obj_65383884
s 1
f 1//1 2//1 3//1
f 2//1 4//1 3//1
f 5//2 6//2 7//2
f 6//2 8//2 7//2
f 9//2 10//2 4//2
f 10//2 11//2 4//2
f 12//2 13//2 11//2
f 13//2 7//2 11//2
f 11//2 7//2 4//2
f 7//2 8//2 4//2
f 4//2 8//2 3//2
f 8//2 14//2 3//2
f 15//3 16//3 14//3
f 16//3 17//3 14//3
f 14//3 17//3 3//3
f 17//3 18//3 3//3
f 3//3 18//3 1//3
f 18//3 19//3 1//3
f 20//1 21//1 11//1
f 21//1 12//1 11//1
f 22//4 18//4 23//4
f 18//4 17//4 23//4
f 24//5 19//5 9//5
f 19//5 18//5 9//5
f 9//5 18//5 10//5
f 18//5 22//5 10//5
f 10//5 22//5 25//5
f 22//5 26//5 25//5
f 27//1 28//1 5//1
f 28//1 23//1 5//1
f 5//1 23//1 6//1
f 23//1 17//1 6//1
f 6//1 17//1 29//1
f 17//1 16//1 29//1
f 21//6 26//6 12//6
f 26//6 22//6 12//6
f 12//6 22//6 13//6
f 22//6 23//6 13//6
f 13//6 23//6 30//6
f 23//6 28//6 30//6
f 2//2 1//2 24//2
f 1//2 19//2 24//2
f 25//3 20//3 10//3
f 20//3 11//3 10//3
f 26//2 21//2 25//2
f 21//2 20//2 25//2
f 31//3 27//3 7//3
f 27//3 5//3 7//3
f 30//5 31//5 13//5
f 31//5 7//5 13//5
f 31//2 30//2 27//2
f 30//2 28//2 27//2
f 29//6 32//6 6//6
f 32//6 8//6 6//6
f 32//5 15//5 8//5
f 15//5 14//5 8//5
f 16//2 15//2 29//2
f 15//2 32//2 29//2
f 2//6 24//6 4//6
f 24//6 9//6 4//6
#60 polygons

